# File created by Blade
# Date/Time:  Thu Jan 22 18:25:10 2015
# Frame Rate: 120.000 fps
#------------------------------------------------------
:FULLY-SPECIFIED
:DEGREES
2443
root -2.842000 33.087194 -0.317204 8.260537 -6.241561 2.464093
RightUpLeg -3.609681 -2.618603 -2.282795
RightLeg 2.250777 -0.000000 -0.000000
RightFoot -12.591251 -1.947017 2.681861
RightToeBase 5.747654 -0.000000 -0.000000
LeftUpLeg -1.802158 5.502218 0.154517
LeftLeg 2.589779 -0.000000 -0.000000
LeftFoot -12.561110 4.615183 -9.573221
LeftToeBase 8.625344 -0.000000 -0.000000
Spine -10.154715 -3.661744 1.262291
RightShoulder 9.446909 6.911427 -20.650267
RightArm 65.221983 -43.003809 67.991827
RightForeArm 58.479626 0.000000 93.474255
RightHand 17.752445 -0.000000 16.204527
RightHandThumb1 -24.326973 -0.000000 -32.862282
LeftShoulder 0.885933 -33.816560 37.262385
LeftArm 72.522034 36.035596 -79.066066
LeftForeArm 28.492453 -0.000000 62.383141
LeftHand -4.424833 -0.000000 -5.526806
LeftHandThumb1 -26.253704 0.000000 33.147579
Head -10.564594 10.292160 -10.947520
2444
root -2.842500 33.087063 -0.314050 8.260445 -6.248936 2.464412
RightUpLeg -3.603649 -2.613023 -2.284771
RightLeg 2.246278 -0.000000 -0.000000
RightFoot -12.590244 -1.943627 2.697723
RightToeBase 5.736324 -0.000000 -0.000000
LeftUpLeg -1.788077 5.502597 0.154441
LeftLeg 2.575087 -0.000000 -0.000000
LeftFoot -12.558503 4.620167 -9.569212
LeftToeBase 8.643122 -0.000000 -0.000000
Spine -10.180462 -3.655694 1.223559
RightShoulder 9.501582 6.955233 -20.651399
RightArm 64.811405 -42.758273 68.553120
RightForeArm 58.722478 0.000000 93.878894
RightHand 18.017301 -0.000000 17.708230
RightHandThumb1 -24.326973 -0.000000 -32.862282
LeftShoulder 1.033779 -34.604387 37.482580
LeftArm 72.502821 36.222042 -78.893678
LeftForeArm 28.192587 0.000000 62.773327
LeftHand -4.319257 -0.000000 -5.531964
LeftHandThumb1 -26.253704 0.000000 33.147579
Head -10.494947 10.267563 -10.935739
2445
root -2.843869 33.087666 -0.311348 8.259204 -6.249669 2.455047
RightUpLeg -3.592747 -2.610646 -2.275222
RightLeg 2.239743 -0.000000 -0.000000
RightFoot -12.586823 -1.945052 2.705160
RightToeBase 5.766595 -0.000000 -0.000000
LeftUpLeg -1.773317 5.497878 0.162020
LeftLeg 2.563177 -0.000000 -0.000000
LeftFoot -12.571338 4.641040 -9.595597
LeftToeBase 8.693253 -0.000000 -0.000000
Spine -10.203136 -3.641280 1.186918
RightShoulder 9.591691 7.192237 -20.581816
RightArm 64.247530 -42.668513 69.063014
RightForeArm 58.887265 0.000000 94.449658
RightHand 18.186670 -0.000000 17.852646
RightHandThumb1 -24.326973 -0.000000 -32.862282
LeftShoulder 1.100703 -35.412661 37.804915
LeftArm 72.508367 36.436075 -78.923296
LeftForeArm 27.895943 0.000000 62.993332
LeftHand -4.192601 -0.000000 -5.721987
LeftHandThumb1 -26.253704 0.000000 33.147579
Head -10.418706 10.242221 -10.907295
2446
root -2.844860 33.088144 -0.308193 8.250197 -6.257600 2.450460
RightUpLeg -3.577899 -2.617603 -2.270889
RightLeg 2.237932 -0.000000 -0.000000
RightFoot -12.580522 -1.924470 2.693163
RightToeBase 5.716048 -0.000000 -0.000000
LeftUpLeg -1.748208 5.494554 0.168215
LeftLeg 2.548006 -0.000000 -0.000000
LeftFoot -12.562796 4.652147 -9.595139
LeftToeBase 8.688064 -0.000000 -0.000000
Spine -10.213043 -3.607736 1.138416
RightShoulder 9.677659 7.297021 -20.504630
RightArm 63.813819 -42.539692 69.426176
RightForeArm 59.300355 -0.000000 95.043065
RightHand 17.686903 -0.000000 17.970642
RightHandThumb1 -24.326973 -0.000000 -32.862282
LeftShoulder 1.192264 -36.317246 38.164049
LeftArm 72.406494 36.589306 -79.033700
LeftForeArm 27.723380 -0.000000 63.249749
LeftHand -4.129685 -0.000000 -6.129690
LeftHandThumb1 -26.253704 0.000000 33.147579
Head -10.349164 10.196586 -10.867261
